<?xml version="1.0" encoding="UTF-8" standalone="no"?>
<!-- This is a Stata 17.0 generated SVG file (http://www.stata.com) -->

<svg version="1.1" width="5.50in" height="4.00in" viewBox="0 0 3960 2880" xmlns="http://www.w3.org/2000/svg" xmlns:xlink="http://www.w3.org/1999/xlink">
	<desc>Stata Graph - Graph</desc>
	<rect x="0" y="0" width="3960" height="2880" style="fill:#EAF2F3;stroke:none"/>
	<rect x="0.00" y="0.00" width="3959.88" height="2880.00" style="fill:#EAF2F3"/>
	<rect x="2.88" y="2.88" width="3954.12" height="2874.24" style="fill:none;stroke:#EAF2F3;stroke-width:5.76"/>
	<rect x="390.80" y="100.86" width="3468.22" height="1852.84" style="fill:#FFFFFF"/>
	<rect x="393.68" y="103.74" width="3462.46" height="1847.08" style="fill:none;stroke:#FFFFFF;stroke-width:5.76"/>
	<line x1="390.80" y1="1953.70" x2="3859.02" y2="1953.70" style="stroke:#EAF2F3;stroke-width:8.64"/>
	<line x1="390.80" y1="1506.33" x2="3859.02" y2="1506.33" style="stroke:#EAF2F3;stroke-width:8.64"/>
	<line x1="390.80" y1="1058.96" x2="3859.02" y2="1058.96" style="stroke:#EAF2F3;stroke-width:8.64"/>
	<line x1="390.80" y1="611.59" x2="3859.02" y2="611.59" style="stroke:#EAF2F3;stroke-width:8.64"/>
	<rect x="854.12" y="1696.79" width="484.85" height="256.91" style="fill:#FF7F00;fill-opacity:0.40"/>
	<rect x="858.44" y="1701.11" width="476.21" height="248.27" style="fill:none;stroke:#D7D29E;stroke-width:8.64"/>
	<rect x="1338.97" y="1054.38" width="484.85" height="899.32" style="fill:#FF7F00;fill-opacity:0.40"/>
	<rect x="1343.29" y="1058.70" width="476.21" height="890.68" style="fill:none;stroke:#D7D29E;stroke-width:8.64"/>
	<rect x="1823.83" y="668.89" width="484.85" height="1284.81" style="fill:#FF7F00;fill-opacity:0.40"/>
	<rect x="1828.15" y="673.21" width="476.21" height="1276.17" style="fill:none;stroke:#D7D29E;stroke-width:8.64"/>
	<rect x="2308.68" y="1054.38" width="484.85" height="899.32" style="fill:#FF7F00;fill-opacity:0.40"/>
	<rect x="2313.00" y="1058.70" width="476.21" height="890.68" style="fill:none;stroke:#D7D29E;stroke-width:8.64"/>
	<rect x="2793.53" y="1439.75" width="484.85" height="513.95" style="fill:#FF7F00;fill-opacity:0.40"/>
	<rect x="2797.85" y="1444.07" width="476.21" height="505.31" style="fill:none;stroke:#D7D29E;stroke-width:8.64"/>
	<path d=" M854.12 1832.18 L862.17 1828.46 L870.33 1824.75 L878.38 1820.79 L886.54 1816.83 L894.59 1812.75 L902.76 1808.66 L910.80 1804.33 L918.97 1800.00 L927.01 1795.54 L935.18 1790.97 L943.22 1786.39 L951.39 1781.56 L959.43 1776.73 L967.60 1771.78 L975.64 1766.83 L983.81 1761.64 L991.86 1756.31 L1000.02 1750.99 L1008.19 1745.55 L1016.24 1739.98 L1024.40 1734.29 L1032.45 1728.47 L1040.61 1722.65 L1048.66 1716.59 L1056.83 1710.53 L1064.87 1704.34 L1073.04 1698.03 L1081.08 1691.47 L1089.25 1685.03 L1097.29 1678.35 L1105.46 1671.54 L1113.50 1664.74 L1121.67 1657.68 L1129.71 1650.63 L1137.88 1643.33 L1145.92 1636.03 L1154.09 1628.60 L1162.14 1621.05 L1170.30 1613.50 L1178.35 1605.71 L1186.52 1597.79 L1194.56 1589.87 L1202.73 1581.82 L1210.77 1573.65 L1218.94 1565.36 L1226.98 1556.95 L1235.15 1548.41 L1243.19 1539.87 L1251.36 1531.08 L1259.53 1522.30 L1267.57 1513.39 L1275.74 1504.48 L1283.78 1495.32 L1291.95 1486.16 L1299.99 1476.88 L1308.16 1467.60 L1316.20 1458.07 L1324.37 1448.54 L1332.42 1439.01 L1340.58 1429.23 L1348.63 1419.46 L1356.80 1409.56 L1364.84 1399.66 L1373.01 1389.63 L1381.05 1379.61 L1389.22 1369.46 L1397.26 1359.31 L1405.43 1349.04 L1413.47 1338.65 L1421.64 1328.25 L1429.68 1317.85 L1437.85 1307.34 L1445.89 1296.82 L1454.06 1286.30 L1462.11 1275.65 L1470.27 1265.01 L1478.32 1254.37 L1486.48 1243.73 L1494.53 1232.96 L1502.70 1222.19 L1510.86 1211.43 L1518.91 1200.66 L1527.08 1189.89 L1535.12 1179.13 L1543.29 1168.36 L1551.33 1157.59 L1559.50 1146.83 L1567.54 1136.06 L1575.71 1125.29 L1583.75 1114.53 L1591.92 1103.88 L1599.96 1093.12 L1608.13 1082.48 L1616.17 1071.96 L1624.34 1061.44 L1632.39 1050.92 L1640.55 1040.40 L1648.60 1030.00 L1656.77 1019.73 L1664.81 1009.46 L1672.98 999.19 L1681.02 989.16 L1689.19 979.14 L1697.23 969.12 L1705.40 959.34 L1713.44 949.56 L1721.61 939.91 L1729.65 930.26 L1737.82 920.85 L1745.87 911.57 L1754.03 902.29 L1762.20 893.26 L1770.24 884.22 L1778.41 875.43 L1786.45 866.77 L1794.62 858.23 L1802.67 849.82 L1810.83 841.53 L1818.88 833.48 L1827.05 825.56 L1835.09 817.77 L1843.26 810.09 L1851.30 802.67 L1859.47 795.49 L1867.51 788.31 L1875.68 781.51 L1883.72 774.82 L1891.89 768.26 L1899.93 761.95 L1908.10 755.76 L1916.14 749.82 L1924.31 744.13 L1932.36 738.69 L1940.52 733.37 L1948.57 728.29 L1956.73 723.34 L1964.78 718.76 L1972.95 714.31 L1980.99 710.10 L1989.16 706.14 L1997.20 702.43 L2005.37 698.84 L2013.41 695.62 L2021.58 692.53 L2029.75 689.80 L2037.79 687.21 L2045.96 684.85 L2054.00 682.75 L2062.17 680.89 L2070.21 679.28 L2078.38 677.92 L2086.43 676.81 L2094.59 675.94 L2102.64 675.32 L2110.80 674.95 L2118.85 674.83 L2127.01 674.95 L2135.06 675.32 L2143.23 675.94 L2151.27 676.81 L2159.44 677.92 L2167.48 679.28 L2175.65 680.89 L2183.69 682.75 L2191.86 684.85 L2199.90 687.21 L2208.07 689.80 L2216.11 692.53 L2224.28 695.62 L2232.33 698.96 L2240.49 702.43 L2248.54 706.14 L2256.70 710.10 L2264.75 714.31 L2272.92 718.76 L2281.08 723.47 L2289.13 728.29 L2297.30 733.37 L2305.34 738.69 L2313.51 744.26 L2321.55 749.95 L2329.72 755.89 L2337.76 761.95 L2345.93 768.26 L2353.97 774.82 L2362.14 781.51 L2370.18 788.44 L2378.35 795.49 L2386.39 802.79 L2394.56 810.22 L2402.61 817.77 L2410.77 825.56 L2418.82 833.48 L2426.99 841.65 L2435.03 849.82 L2443.20 858.23 L2451.24 866.77 L2459.41 875.56 L2467.45 884.35 L2475.62 893.26 L2483.66 902.41 L2491.83 911.57 L2499.87 920.98 L2508.04 930.38 L2516.09 939.91 L2524.25 949.56 L2532.42 959.34 L2540.46 969.24 L2548.63 979.14 L2556.68 989.16 L2564.84 999.31 L2572.89 1009.46 L2581.05 1019.73 L2589.10 1030.13 L2597.26 1040.52 L2605.31 1050.92 L2613.48 1061.44 L2621.52 1071.96 L2629.69 1082.60 L2637.73 1093.24 L2645.90 1103.88 L2653.94 1114.65 L2662.11 1125.29 L2670.15 1136.06 L2678.32 1146.83 L2686.36 1157.59 L2694.53 1168.36 L2702.58 1179.25 L2710.74 1190.02 L2718.79 1200.78 L2726.95 1211.55 L2735.00 1222.32 L2743.17 1233.08 L2751.21 1243.73 L2759.38 1254.49 L2767.42 1265.14 L2775.59 1275.78 L2783.76 1286.42 L2791.80 1296.94 L2799.97 1307.46 L2808.01 1317.98 L2816.18 1328.37 L2824.22 1338.77 L2832.39 1349.04 L2840.43 1359.31 L2848.60 1369.58 L2856.64 1379.73 L2864.81 1389.76 L2872.86 1399.78 L2881.02 1409.68 L2889.07 1419.58 L2897.24 1429.36 L2905.28 1439.01 L2913.45 1448.66 L2921.49 1458.19 L2929.66 1467.60 L2937.70 1477.00 L2945.87 1486.28 L2953.91 1495.44 L2962.08 1504.48 L2970.12 1513.51 L2978.29 1522.42 L2986.34 1531.21 L2994.50 1539.87 L3002.55 1548.53 L3010.71 1556.95 L3018.76 1565.36 L3026.93 1573.65 L3035.09 1581.82 L3043.14 1589.87 L3051.30 1597.91 L3059.35 1605.71 L3067.51 1613.50 L3075.56 1621.18 L3083.73 1628.72 L3091.77 1636.15 L3099.94 1643.45 L3107.98 1650.63 L3116.15 1657.68 L3124.19 1664.74 L3132.36 1671.67 L3140.40 1678.35 L3148.57 1685.03 L3156.61 1691.59 L3164.78 1698.03 L3172.83 1704.34 L3180.99 1710.53 L3189.04 1716.71 L3197.20 1722.65 L3205.25 1728.59 L3213.42 1734.29 L3221.46 1739.98 L3229.63 1745.55 L3237.67 1750.99 L3245.84 1756.44 L3253.88 1761.64 L3262.05 1766.83 L3270.09 1771.91 L3278.26 1776.86" stroke-linejoin="round" style="fill:none;stroke:#2D6D66;stroke-width:8.64"/>
	<rect x="927.26" y="1151.65" width="466.04" height="802.05" style="fill:#0080FF;fill-opacity:0.50"/>
	<rect x="931.58" y="1155.97" width="457.40" height="793.41" style="fill:none;stroke:#D7D29E;stroke-width:8.64"/>
	<rect x="1393.30" y="1285.31" width="465.92" height="668.39" style="fill:#0080FF;fill-opacity:0.50"/>
	<rect x="1397.62" y="1289.63" width="457.28" height="659.75" style="fill:none;stroke:#D7D29E;stroke-width:8.64"/>
	<rect x="1859.22" y="483.26" width="466.04" height="1470.44" style="fill:#0080FF;fill-opacity:0.50"/>
	<rect x="1863.54" y="487.58" width="457.40" height="1461.80" style="fill:none;stroke:#D7D29E;stroke-width:8.64"/>
	<rect x="2325.26" y="1418.96" width="465.92" height="534.74" style="fill:#0080FF;fill-opacity:0.50"/>
	<rect x="2329.58" y="1423.28" width="457.28" height="526.10" style="fill:none;stroke:#D7D29E;stroke-width:8.64"/>
	<rect x="2791.18" y="1418.96" width="466.04" height="534.74" style="fill:#0080FF;fill-opacity:0.50"/>
	<rect x="2795.50" y="1423.28" width="457.40" height="526.10" style="fill:none;stroke:#D7D29E;stroke-width:8.64"/>
	<line x1="390.80" y1="1953.70" x2="390.80" y2="100.86" style="stroke:#000000;stroke-width:5.76"/>
	<line x1="390.80" y1="1953.70" x2="350.83" y2="1953.70" style="stroke:#000000;stroke-width:5.76"/>
	<text x="300.72" y="1953.70" style="font-family:'Helvetica';font-size:99.99px;fill:#000000" transform="rotate(-90 300.72,1953.70)" text-anchor="middle">0</text>
	<line x1="390.80" y1="1506.33" x2="350.83" y2="1506.33" style="stroke:#000000;stroke-width:5.76"/>
	<text x="300.72" y="1506.33" style="font-family:'Helvetica';font-size:99.99px;fill:#000000" transform="rotate(-90 300.72,1506.33)" text-anchor="middle">.01</text>
	<line x1="390.80" y1="1058.96" x2="350.83" y2="1058.96" style="stroke:#000000;stroke-width:5.76"/>
	<text x="300.72" y="1058.96" style="font-family:'Helvetica';font-size:99.99px;fill:#000000" transform="rotate(-90 300.72,1058.96)" text-anchor="middle">.02</text>
	<line x1="390.80" y1="611.59" x2="350.83" y2="611.59" style="stroke:#000000;stroke-width:5.76"/>
	<text x="300.72" y="611.59" style="font-family:'Helvetica';font-size:99.99px;fill:#000000" transform="rotate(-90 300.72,611.59)" text-anchor="middle">.03</text>
	<line x1="390.80" y1="164.22" x2="350.83" y2="164.22" style="stroke:#000000;stroke-width:5.76"/>
	<text x="300.72" y="164.22" style="font-family:'Helvetica';font-size:99.99px;fill:#000000" transform="rotate(-90 300.72,164.22)" text-anchor="middle">.04</text>
	<text x="190.71" y="1027.28" style="font-family:'Helvetica';font-size:99.99px;fill:#000000" transform="rotate(-90 190.71,1027.28)" text-anchor="middle">Density</text>
	<line x1="390.80" y1="1953.70" x2="3859.02" y2="1953.70" style="stroke:#000000;stroke-width:5.76"/>
	<line x1="454.16" y1="1953.70" x2="454.16" y2="1993.67" style="stroke:#000000;stroke-width:5.76"/>
	<text x="454.16" y="2083.66" style="font-family:'Helvetica';font-size:99.99px;fill:#000000" text-anchor="middle">20</text>
	<line x1="1289.47" y1="1953.70" x2="1289.47" y2="1993.67" style="stroke:#000000;stroke-width:5.76"/>
	<text x="1289.47" y="2083.66" style="font-family:'Helvetica';font-size:99.99px;fill:#000000" text-anchor="middle">40</text>
	<line x1="2124.91" y1="1953.70" x2="2124.91" y2="1993.67" style="stroke:#000000;stroke-width:5.76"/>
	<text x="2124.91" y="2083.66" style="font-family:'Helvetica';font-size:99.99px;fill:#000000" text-anchor="middle">60</text>
	<line x1="2960.35" y1="1953.70" x2="2960.35" y2="1993.67" style="stroke:#000000;stroke-width:5.76"/>
	<text x="2960.35" y="2083.66" style="font-family:'Helvetica';font-size:99.99px;fill:#000000" text-anchor="middle">80</text>
	<line x1="3795.66" y1="1953.70" x2="3795.66" y2="1993.67" style="stroke:#000000;stroke-width:5.76"/>
	<text x="3795.66" y="2083.66" style="font-family:'Helvetica';font-size:99.99px;fill:#000000" text-anchor="middle">100</text>
	<text x="2124.91" y="2193.67" style="font-family:'Helvetica';font-size:99.99px;fill:#000000" text-anchor="middle">age</text>
	<rect x="1237.25" y="2278.31" width="1775.32" height="466.30" style="fill:#FFFFFF"/>
	<rect x="1240.13" y="2281.19" width="1769.56" height="460.54" style="fill:none;stroke:#000000;stroke-width:5.76"/>
	<rect x="1280.44" y="2321.50" width="374.34" height="99.99" style="fill:#FF7F00;fill-opacity:0.40"/>
	<rect x="1284.76" y="2325.82" width="365.70" height="91.35" style="fill:none;stroke:#D7D29E;stroke-width:8.64"/>
	<line x1="1280.44" y1="2511.46" x2="1654.79" y2="2511.46" style="stroke:#2D6D66;stroke-width:8.64"/>
	<rect x="1280.44" y="2601.43" width="374.34" height="99.99" style="fill:#0080FF;fill-opacity:0.50"/>
	<rect x="1284.76" y="2605.75" width="365.70" height="91.35" style="fill:none;stroke:#D7D29E;stroke-width:8.64"/>
	<text x="1714.80" y="2406.52" style="font-family:'Helvetica';font-size:99.99px;fill:#000000">Sampled from Normal</text>
	<text x="1714.80" y="2546.49" style="font-family:'Helvetica';font-size:99.99px;fill:#000000">Theoretical Normal</text>
	<text x="1714.80" y="2686.46" style="font-family:'Helvetica';font-size:99.99px;fill:#000000">Sampled from t-distribution</text>
</svg>
