<?xml version="1.0" encoding="UTF-8" standalone="no"?>
<!-- This is a Stata 17.0 generated SVG file (http://www.stata.com) -->

<svg version="1.1" width="5.50in" height="4.00in" viewBox="0 0 3960 2880" xmlns="http://www.w3.org/2000/svg" xmlns:xlink="http://www.w3.org/1999/xlink">
	<desc>Stata Graph - Graph</desc>
	<rect x="0" y="0" width="3960" height="2880" style="fill:#EAF2F3;stroke:none"/>
	<rect x="0.00" y="0.00" width="3959.88" height="2880.00" style="fill:#EAF2F3"/>
	<rect x="2.88" y="2.88" width="3954.12" height="2874.24" style="fill:none;stroke:#EAF2F3;stroke-width:5.76"/>
	<rect x="390.80" y="100.86" width="3468.22" height="1852.84" style="fill:#FFFFFF"/>
	<rect x="393.68" y="103.74" width="3462.46" height="1847.08" style="fill:none;stroke:#FFFFFF;stroke-width:5.76"/>
	<line x1="390.80" y1="1953.70" x2="3859.02" y2="1953.70" style="stroke:#EAF2F3;stroke-width:8.64"/>
	<line x1="390.80" y1="1506.33" x2="3859.02" y2="1506.33" style="stroke:#EAF2F3;stroke-width:8.64"/>
	<line x1="390.80" y1="1058.96" x2="3859.02" y2="1058.96" style="stroke:#EAF2F3;stroke-width:8.64"/>
	<line x1="390.80" y1="611.59" x2="3859.02" y2="611.59" style="stroke:#EAF2F3;stroke-width:8.64"/>
	<line x1="390.80" y1="164.22" x2="3859.02" y2="164.22" style="stroke:#EAF2F3;stroke-width:8.64"/>
	<rect x="734.83" y="1625.38" width="561.33" height="328.32" style="fill:#FF7F00;fill-opacity:0.40"/>
	<rect x="739.15" y="1629.70" width="552.69" height="319.68" style="fill:none;stroke:#D7D29E;stroke-width:8.64"/>
	<rect x="1296.16" y="1297.19" width="561.45" height="656.51" style="fill:#FF7F00;fill-opacity:0.40"/>
	<rect x="1300.48" y="1301.51" width="552.81" height="647.87" style="fill:none;stroke:#D7D29E;stroke-width:8.64"/>
	<rect x="1857.61" y="804.77" width="561.33" height="1148.93" style="fill:#FF7F00;fill-opacity:0.40"/>
	<rect x="1861.93" y="809.09" width="552.69" height="1140.29" style="fill:none;stroke:#D7D29E;stroke-width:8.64"/>
	<rect x="2418.94" y="804.77" width="561.33" height="1148.93" style="fill:#FF7F00;fill-opacity:0.40"/>
	<rect x="2423.26" y="809.09" width="552.69" height="1140.29" style="fill:none;stroke:#D7D29E;stroke-width:8.64"/>
	<rect x="2980.27" y="312.23" width="561.45" height="1641.47" style="fill:#FF7F00;fill-opacity:0.40"/>
	<rect x="2984.59" y="316.55" width="552.81" height="1632.83" style="fill:none;stroke:#D7D29E;stroke-width:8.64"/>
	<path d=" M734.70 1861.26 L744.11 1858.54 L753.51 1855.69 L762.92 1852.84 L772.32 1849.87 L781.73 1846.78 L791.13 1843.69 L800.41 1840.59 L809.82 1837.37 L819.23 1834.03 L828.63 1830.69 L838.03 1827.23 L847.44 1823.64 L856.85 1820.05 L866.13 1816.34 L875.53 1812.62 L884.94 1808.79 L894.34 1804.83 L903.75 1800.74 L913.15 1796.66 L922.56 1792.45 L931.96 1788.24 L941.24 1783.91 L950.65 1779.46 L960.05 1774.88 L969.46 1770.30 L978.86 1765.60 L988.27 1760.77 L997.67 1755.82 L1006.95 1750.87 L1016.36 1745.80 L1025.76 1740.60 L1035.17 1735.28 L1044.57 1729.96 L1053.98 1724.51 L1063.38 1718.94 L1072.66 1713.25 L1082.07 1707.56 L1091.47 1701.62 L1100.88 1695.68 L1110.29 1689.61 L1119.69 1683.55 L1129.10 1677.24 L1138.38 1670.92 L1147.78 1664.49 L1157.19 1657.93 L1166.59 1651.25 L1176.00 1644.44 L1185.40 1637.63 L1194.81 1630.58 L1204.09 1623.53 L1213.49 1616.35 L1222.90 1609.17 L1232.30 1601.75 L1241.71 1594.32 L1251.11 1586.77 L1260.52 1579.10 L1269.80 1571.30 L1279.20 1563.38 L1288.61 1555.46 L1298.01 1547.29 L1307.42 1539.13 L1316.82 1530.96 L1326.23 1522.54 L1335.51 1514.00 L1344.91 1505.47 L1354.32 1496.80 L1363.72 1488.14 L1373.13 1479.23 L1382.54 1470.32 L1391.94 1461.29 L1401.22 1452.13 L1410.63 1442.97 L1420.03 1433.56 L1429.44 1424.28 L1438.84 1414.75 L1448.25 1405.23 L1457.65 1395.57 L1466.93 1385.80 L1476.34 1376.02 L1485.74 1366.12 L1495.15 1356.22 L1504.55 1346.19 L1513.96 1336.05 L1523.36 1325.90 L1532.64 1315.63 L1542.05 1305.36 L1551.45 1294.96 L1560.86 1284.57 L1570.26 1274.05 L1579.67 1263.53 L1589.07 1252.88 L1598.36 1242.24 L1607.76 1231.60 L1617.16 1220.83 L1626.57 1210.07 L1635.97 1199.17 L1645.38 1188.28 L1654.79 1177.39 L1664.07 1166.50 L1673.47 1155.49 L1682.88 1144.48 L1692.28 1133.46 L1701.69 1122.45 L1711.09 1111.31 L1720.50 1100.30 L1729.78 1089.16 L1739.18 1078.14 L1748.59 1067.01 L1757.99 1055.87 L1767.40 1044.85 L1776.80 1033.72 L1786.21 1022.70 L1795.49 1011.56 L1804.89 1000.55 L1814.30 989.54 L1823.70 978.52 L1833.11 967.51 L1842.51 956.62 L1851.92 945.73 L1861.20 934.84 L1870.61 923.95 L1880.01 913.18 L1889.41 902.41 L1898.82 891.77 L1908.22 881.13 L1917.63 870.61 L1926.91 860.09 L1936.32 849.69 L1945.72 839.42 L1955.13 829.15 L1964.53 819.00 L1973.94 808.86 L1983.34 798.83 L1992.75 788.93 L2002.03 779.15 L2011.43 769.38 L2020.84 759.85 L2030.24 750.32 L2039.65 740.91 L2049.05 731.63 L2058.46 722.48 L2067.74 713.56 L2077.14 704.65 L2086.55 695.87 L2095.95 687.21 L2105.36 678.79 L2114.76 670.37 L2124.17 662.21 L2133.45 654.16 L2142.86 646.24 L2152.26 638.57 L2161.66 631.02 L2171.07 623.60 L2180.47 616.29 L2189.88 609.24 L2199.16 602.43 L2208.57 595.63 L2217.97 589.07 L2227.38 582.76 L2236.78 576.57 L2246.19 570.63 L2255.59 564.81 L2264.87 559.24 L2274.28 553.80 L2283.68 548.60 L2293.09 543.53 L2302.49 538.70 L2311.90 534.12 L2321.30 529.79 L2330.58 525.58 L2339.99 521.62 L2349.39 517.79 L2358.80 514.32 L2368.20 510.98 L2377.61 507.89 L2387.01 504.92 L2396.30 502.19 L2405.70 499.84 L2415.11 497.61 L2424.51 495.51 L2433.91 493.78 L2443.32 492.17 L2452.72 490.93 L2462.01 489.82 L2471.41 488.95 L2480.82 488.21 L2490.22 487.84 L2499.63 487.59 L2509.03 487.71 L2518.44 487.96 L2527.72 488.46 L2537.12 489.08 L2546.53 490.07 L2555.93 491.30 L2565.34 492.66 L2574.74 494.27 L2584.15 496.13 L2593.43 498.23 L2602.83 500.46 L2612.24 503.06 L2621.64 505.78 L2631.05 508.75 L2640.45 511.85 L2649.86 515.31 L2659.14 518.90 L2668.55 522.74 L2677.95 526.82 L2687.36 531.03 L2696.76 535.48 L2706.16 540.19 L2715.57 545.01 L2724.85 550.09 L2734.26 555.41 L2743.66 560.85 L2753.07 566.55 L2762.47 572.36 L2771.88 578.43 L2781.28 584.61 L2790.56 591.05 L2799.97 597.61 L2809.37 604.41 L2818.78 611.34 L2828.18 618.52 L2837.59 625.70 L2846.99 633.25 L2856.27 640.80 L2865.68 648.59 L2875.08 656.51 L2884.49 664.68 L2893.89 672.85 L2903.30 681.27 L2912.70 689.80 L2921.99 698.47 L2931.39 707.25 L2940.80 716.16 L2950.20 725.20 L2959.61 734.36 L2969.01 743.64 L2978.41 753.17 L2987.82 762.70 L2997.10 772.22 L3006.51 782.00 L3015.91 791.90 L3025.32 801.80 L3034.72 811.83 L3044.13 821.97 L3053.53 832.12 L3062.81 842.39 L3072.22 852.79 L3081.62 863.18 L3091.03 873.70 L3100.43 884.35 L3109.84 894.99 L3119.24 905.63 L3128.52 916.40 L3137.93 927.16 L3147.33 938.05 L3156.74 948.94 L3166.14 959.83 L3175.55 970.73 L3184.95 981.74 L3194.24 992.75 L3203.64 1003.77 L3213.05 1014.91 L3222.45 1025.92 L3231.86 1037.06 L3241.26 1048.07 L3250.66 1059.21 L3259.95 1070.22 L3269.35 1081.36 L3278.76 1092.50 L3288.16 1103.51 L3297.57 1114.65 L3306.97 1125.67 L3316.38 1136.68 L3325.66 1147.69 L3335.06 1158.71 L3344.47 1169.72 L3353.87 1180.61 L3363.28 1191.50 L3372.68 1202.39 L3382.09 1213.16 L3391.37 1223.93 L3400.77 1234.69 L3410.18 1245.46 L3419.58 1256.10 L3428.99 1266.62 L3438.39 1277.14 L3447.80 1287.66 L3457.08 1298.05 L3466.49 1308.45 L3475.89 1318.72 L3485.30 1328.87 L3494.70 1339.02 L3504.11 1349.16 L3513.51 1359.19 L3522.79 1369.09 L3532.20 1378.99 L3541.60 1388.77" stroke-linejoin="round" style="fill:none;stroke:#2D6D66;stroke-width:8.64"/>
	<rect x="1064.00" y="1278.87" width="546.11" height="674.83" style="fill:#0080FF;fill-opacity:0.50"/>
	<rect x="1068.32" y="1283.19" width="537.47" height="666.19" style="fill:none;stroke:#D7D29E;stroke-width:8.64"/>
	<rect x="1610.11" y="604.04" width="546.23" height="1349.66" style="fill:#0080FF;fill-opacity:0.50"/>
	<rect x="1614.43" y="608.36" width="537.59" height="1341.02" style="fill:none;stroke:#D7D29E;stroke-width:8.64"/>
	<rect x="2156.34" y="435.24" width="546.11" height="1518.46" style="fill:#0080FF;fill-opacity:0.50"/>
	<rect x="2160.66" y="439.56" width="537.47" height="1509.82" style="fill:none;stroke:#D7D29E;stroke-width:8.64"/>
	<rect x="2702.45" y="1110.20" width="546.23" height="843.51" style="fill:#0080FF;fill-opacity:0.50"/>
	<rect x="2706.77" y="1114.52" width="537.59" height="834.87" style="fill:none;stroke:#D7D29E;stroke-width:8.64"/>
	<rect x="3248.68" y="1278.87" width="546.11" height="674.83" style="fill:#0080FF;fill-opacity:0.50"/>
	<rect x="3253.00" y="1283.19" width="537.47" height="666.19" style="fill:none;stroke:#D7D29E;stroke-width:8.64"/>
	<line x1="390.80" y1="1953.70" x2="390.80" y2="100.86" style="stroke:#000000;stroke-width:5.76"/>
	<line x1="390.80" y1="1953.70" x2="350.83" y2="1953.70" style="stroke:#000000;stroke-width:5.76"/>
	<text x="300.72" y="1953.70" style="font-family:'Helvetica';font-size:99.99px;fill:#000000" transform="rotate(-90 300.72,1953.70)" text-anchor="middle">0</text>
	<line x1="390.80" y1="1506.33" x2="350.83" y2="1506.33" style="stroke:#000000;stroke-width:5.76"/>
	<text x="300.72" y="1506.33" style="font-family:'Helvetica';font-size:99.99px;fill:#000000" transform="rotate(-90 300.72,1506.33)" text-anchor="middle">.01</text>
	<line x1="390.80" y1="1058.96" x2="350.83" y2="1058.96" style="stroke:#000000;stroke-width:5.76"/>
	<text x="300.72" y="1058.96" style="font-family:'Helvetica';font-size:99.99px;fill:#000000" transform="rotate(-90 300.72,1058.96)" text-anchor="middle">.02</text>
	<line x1="390.80" y1="611.59" x2="350.83" y2="611.59" style="stroke:#000000;stroke-width:5.76"/>
	<text x="300.72" y="611.59" style="font-family:'Helvetica';font-size:99.99px;fill:#000000" transform="rotate(-90 300.72,611.59)" text-anchor="middle">.03</text>
	<line x1="390.80" y1="164.22" x2="350.83" y2="164.22" style="stroke:#000000;stroke-width:5.76"/>
	<text x="300.72" y="164.22" style="font-family:'Helvetica';font-size:99.99px;fill:#000000" transform="rotate(-90 300.72,164.22)" text-anchor="middle">.04</text>
	<text x="190.71" y="1027.28" style="font-family:'Helvetica';font-size:99.99px;fill:#000000" transform="rotate(-90 190.71,1027.28)" text-anchor="middle">Density</text>
	<line x1="390.80" y1="1953.70" x2="3859.02" y2="1953.70" style="stroke:#000000;stroke-width:5.76"/>
	<line x1="706.24" y1="1953.70" x2="706.24" y2="1993.67" style="stroke:#000000;stroke-width:5.76"/>
	<text x="706.24" y="2083.66" style="font-family:'Helvetica';font-size:99.99px;fill:#000000" text-anchor="middle">30</text>
	<line x1="1324.12" y1="1953.70" x2="1324.12" y2="1993.67" style="stroke:#000000;stroke-width:5.76"/>
	<text x="1324.12" y="2083.66" style="font-family:'Helvetica';font-size:99.99px;fill:#000000" text-anchor="middle">40</text>
	<line x1="1942.01" y1="1953.70" x2="1942.01" y2="1993.67" style="stroke:#000000;stroke-width:5.76"/>
	<text x="1942.01" y="2083.66" style="font-family:'Helvetica';font-size:99.99px;fill:#000000" text-anchor="middle">50</text>
	<line x1="2559.89" y1="1953.70" x2="2559.89" y2="1993.67" style="stroke:#000000;stroke-width:5.76"/>
	<text x="2559.89" y="2083.66" style="font-family:'Helvetica';font-size:99.99px;fill:#000000" text-anchor="middle">60</text>
	<line x1="3177.78" y1="1953.70" x2="3177.78" y2="1993.67" style="stroke:#000000;stroke-width:5.76"/>
	<text x="3177.78" y="2083.66" style="font-family:'Helvetica';font-size:99.99px;fill:#000000" text-anchor="middle">70</text>
	<line x1="3795.66" y1="1953.70" x2="3795.66" y2="1993.67" style="stroke:#000000;stroke-width:5.76"/>
	<text x="3795.66" y="2083.66" style="font-family:'Helvetica';font-size:99.99px;fill:#000000" text-anchor="middle">80</text>
	<text x="2124.91" y="2193.67" style="font-family:'Helvetica';font-size:99.99px;fill:#000000" text-anchor="middle">age</text>
	<rect x="1237.25" y="2278.31" width="1775.32" height="466.30" style="fill:#FFFFFF"/>
	<rect x="1240.13" y="2281.19" width="1769.56" height="460.54" style="fill:none;stroke:#000000;stroke-width:5.76"/>
	<rect x="1280.44" y="2321.50" width="374.34" height="99.99" style="fill:#FF7F00;fill-opacity:0.40"/>
	<rect x="1284.76" y="2325.82" width="365.70" height="91.35" style="fill:none;stroke:#D7D29E;stroke-width:8.64"/>
	<line x1="1280.44" y1="2511.46" x2="1654.79" y2="2511.46" style="stroke:#2D6D66;stroke-width:8.64"/>
	<rect x="1280.44" y="2601.43" width="374.34" height="99.99" style="fill:#0080FF;fill-opacity:0.50"/>
	<rect x="1284.76" y="2605.75" width="365.70" height="91.35" style="fill:none;stroke:#D7D29E;stroke-width:8.64"/>
	<text x="1714.80" y="2406.52" style="font-family:'Helvetica';font-size:99.99px;fill:#000000">Sampled from Normal</text>
	<text x="1714.80" y="2546.49" style="font-family:'Helvetica';font-size:99.99px;fill:#000000">Theoretical Normal</text>
	<text x="1714.80" y="2686.46" style="font-family:'Helvetica';font-size:99.99px;fill:#000000">Sampled from t-distribution</text>
</svg>
